<?xml version="1.0" encoding="iso-8859-1"?>
<!-- Generator: Adobe Illustrator 19.0.0, SVG Export Plug-In . SVG Version: 6.00 Build 0)  -->
<svg version="1.1" id="Capa_1" xmlns="http://www.w3.org/2000/svg" xmlns:xlink="http://www.w3.org/1999/xlink" x="0px" y="0px"
	 viewBox="0 0 512 512" style="enable-background:new 0 0 512 512;" xml:space="preserve">
<g>
	<g>
		<path d="M216.615,300.308h-19.692c-2.715,0-4.923,2.208-4.923,4.923v24.615h24.615c2.715,0,4.923-2.208,4.923-4.923v-19.692
			C221.538,302.516,219.33,300.308,216.615,300.308z"/>
	</g>
</g>
<g>
	<g>
		<path d="M118.154,300.308H98.462c-2.715,0-4.923,2.208-4.923,4.923V384c0,2.715,2.208,4.923,4.923,4.923h19.692
			c2.715,0,4.923-2.208,4.923-4.923v-78.769C123.077,302.516,120.868,300.308,118.154,300.308z"/>
	</g>
</g>
<g>
	<g>
		<path d="M467.692,201.846h-49.218l-119.62-90.026c7.075-9.153,11.299-20.614,11.299-33.051c0-29.86-24.293-54.154-54.154-54.154
			s-54.154,24.293-54.154,54.154c0,12.436,4.224,23.898,11.298,33.05l-119.62,90.027H44.308C19.876,201.846,0,221.723,0,246.154
			v196.923c0,24.431,19.876,44.308,44.308,44.308h423.385c24.431,0,44.308-19.876,44.308-44.308V246.154
			C512,221.723,492.124,201.846,467.692,201.846z M238.227,129.912c5.571,1.942,11.549,3.011,17.773,3.011
			c6.226,0,12.202-1.069,17.774-3.011l95.58,71.934H142.646L238.227,129.912z M152.615,384c0,19.002-15.459,34.462-34.461,34.462
			H98.462C79.459,418.462,64,403.002,64,384v-78.769c0-19.002,15.459-34.462,34.462-34.462h19.692
			c19.002,0,34.461,15.459,34.461,34.462V384z M251.077,324.923c0,19.002-15.459,34.462-34.462,34.462H192v44.308
			c0,8.157-6.613,14.769-14.769,14.769s-14.769-6.613-14.769-14.769v-98.462c0-19.002,15.459-34.462,34.462-34.462h19.692
			c19.002,0,34.462,15.459,34.462,34.462V324.923z M315.077,329.846c8.157,0,14.769,6.613,14.769,14.769
			c0,8.157-6.613,14.769-14.769,14.769h-24.615v29.538h44.308c8.157,0,14.769,6.613,14.769,14.769s-6.613,14.769-14.769,14.769
			h-59.077c-8.157,0-14.769-6.613-14.769-14.769V285.538c0-8.157,6.613-14.769,14.769-14.769h59.077
			c8.157,0,14.769,6.613,14.769,14.769s-6.613,14.769-14.769,14.769h-44.308v29.538H315.077z M448,403.692
			c0,6.85-4.709,12.8-11.376,14.374c-1.132,0.267-2.273,0.397-3.397,0.397c-5.495,0-10.663-3.08-13.206-8.165l-31.098-62.196v55.59
			c0,8.157-6.613,14.769-14.769,14.769s-14.769-6.613-14.769-14.769V285.538c0-6.85,4.709-12.8,11.376-14.374
			c6.666-1.575,13.54,1.642,16.603,7.77l31.098,62.195v-55.59c0-8.157,6.613-14.769,14.769-14.769S448,277.382,448,285.538V403.692z
			"/>
	</g>
</g>
<g>
</g>
<g>
</g>
<g>
</g>
<g>
</g>
<g>
</g>
<g>
</g>
<g>
</g>
<g>
</g>
<g>
</g>
<g>
</g>
<g>
</g>
<g>
</g>
<g>
</g>
<g>
</g>
<g>
</g>
</svg>
